<mxfile host="app.diagrams.net" modified="2021-12-28T05:39:44.132Z" agent="5.0 (Windows NT 10.0; Win64; x64) AppleWebKit/537.36 (KHTML, like Gecko) Chrome/96.0.4664.110 Safari/537.36" etag="UMAFEdkU32zPoAN78OIW" version="16.0.3" type="github">
  <diagram id="g8Izu5Np4L7l_OdjA9j1" name="Page-1">
    <mxGraphModel dx="272" dy="410" grid="1" gridSize="10" guides="1" tooltips="1" connect="1" arrows="1" fold="1" page="1" pageScale="1" pageWidth="827" pageHeight="1169" math="0" shadow="0">
      <root>
        <mxCell id="0" />
        <mxCell id="1" parent="0" />
        <mxCell id="gbAfw1R_Pz2ZGZU1h5pq-27" value="" style="shape=flexArrow;endArrow=classic;html=1;rounded=0;fontSize=14;startArrow=none;entryX=0.1;entryY=0.343;entryDx=0;entryDy=0;entryPerimeter=0;strokeColor=#006658;fontColor=#5C5C5C;" parent="1" source="gbAfw1R_Pz2ZGZU1h5pq-29" edge="1" target="KQELojNOx8MNn1PBbwNk-3">
          <mxGeometry width="50" height="50" relative="1" as="geometry">
            <mxPoint x="262" y="210" as="sourcePoint" />
            <mxPoint x="490" y="210" as="targetPoint" />
          </mxGeometry>
        </mxCell>
        <mxCell id="gbAfw1R_Pz2ZGZU1h5pq-28" value="" style="shape=flexArrow;endArrow=classic;html=1;rounded=0;fontSize=14;startArrow=none;entryX=0.874;entryY=0.703;entryDx=0;entryDy=0;entryPerimeter=0;strokeColor=#006658;fontColor=#5C5C5C;" parent="1" source="gbAfw1R_Pz2ZGZU1h5pq-31" target="KQELojNOx8MNn1PBbwNk-11" edge="1">
          <mxGeometry width="50" height="50" relative="1" as="geometry">
            <mxPoint x="529" y="250" as="sourcePoint" />
            <mxPoint x="261.9999999999999" y="230" as="targetPoint" />
          </mxGeometry>
        </mxCell>
        <mxCell id="gbAfw1R_Pz2ZGZU1h5pq-29" value="2. 서비스 요청&#xa;" style="text;strokeColor=#006658;fillColor=none;spacingLeft=4;spacingRight=4;overflow=hidden;rotatable=0;points=[[0,0.5],[1,0.5]];portConstraint=eastwest;fontSize=14;fontColor=#5C5C5C;" parent="1" vertex="1">
          <mxGeometry x="320" y="162" width="100" height="30" as="geometry" />
        </mxCell>
        <mxCell id="gbAfw1R_Pz2ZGZU1h5pq-30" value="" style="shape=flexArrow;endArrow=none;html=1;rounded=0;fontSize=14;strokeColor=#006658;fontColor=#5C5C5C;" parent="1" target="gbAfw1R_Pz2ZGZU1h5pq-29" edge="1" source="KQELojNOx8MNn1PBbwNk-11">
          <mxGeometry width="50" height="50" relative="1" as="geometry">
            <mxPoint x="262" y="210" as="sourcePoint" />
            <mxPoint x="490" y="210" as="targetPoint" />
          </mxGeometry>
        </mxCell>
        <mxCell id="gbAfw1R_Pz2ZGZU1h5pq-31" value="3. 서비스 응답&#xa;" style="text;strokeColor=#006658;fillColor=none;spacingLeft=4;spacingRight=4;overflow=hidden;rotatable=0;points=[[0,0.5],[1,0.5]];portConstraint=eastwest;fontSize=14;fontColor=#5C5C5C;" parent="1" vertex="1">
          <mxGeometry x="320" y="217" width="100" height="30" as="geometry" />
        </mxCell>
        <mxCell id="gbAfw1R_Pz2ZGZU1h5pq-32" value="" style="shape=flexArrow;endArrow=none;html=1;rounded=0;fontSize=14;exitX=0;exitY=0.5;exitDx=0;exitDy=0;strokeColor=#006658;fontColor=#5C5C5C;" parent="1" target="gbAfw1R_Pz2ZGZU1h5pq-31" edge="1" source="KQELojNOx8MNn1PBbwNk-3">
          <mxGeometry width="50" height="50" relative="1" as="geometry">
            <mxPoint x="529" y="250" as="sourcePoint" />
            <mxPoint x="297" y="250" as="targetPoint" />
          </mxGeometry>
        </mxCell>
        <mxCell id="KQELojNOx8MNn1PBbwNk-3" value="" style="image;html=1;image=img/lib/clip_art/computers/Server_128x128.png;fontSize=14;strokeColor=#006658;imageBorder=default;fillColor=#21C0A5;fontColor=#5C5C5C;" vertex="1" parent="1">
          <mxGeometry x="500" y="162" width="100" height="98" as="geometry" />
        </mxCell>
        <mxCell id="gbAfw1R_Pz2ZGZU1h5pq-41" value="&lt;b&gt;서버&lt;br&gt;S/W&lt;/b&gt;" style="rounded=1;whiteSpace=wrap;html=1;fontSize=14;strokeColor=#006658;fillColor=#21C0A5;fontColor=#5C5C5C;" parent="1" vertex="1">
          <mxGeometry x="560" y="130" width="60" height="65" as="geometry" />
        </mxCell>
        <mxCell id="KQELojNOx8MNn1PBbwNk-11" value="" style="dashed=0;outlineConnect=0;html=1;align=center;labelPosition=center;verticalLabelPosition=bottom;verticalAlign=top;shape=mxgraph.weblogos.chrome;fontSize=24;strokeColor=#006658;fillColor=#21C0A5;fontColor=#5C5C5C;" vertex="1" parent="1">
          <mxGeometry x="174.6" y="167" width="74.8" height="75.4" as="geometry" />
        </mxCell>
        <mxCell id="KQELojNOx8MNn1PBbwNk-12" value="클라이언트" style="text;strokeColor=none;fillColor=none;spacingLeft=4;spacingRight=4;overflow=hidden;rotatable=0;points=[[0,0.5],[1,0.5]];portConstraint=eastwest;fontSize=14;fontColor=#5C5C5C;" vertex="1" parent="1">
          <mxGeometry x="170" y="240" width="90" height="30" as="geometry" />
        </mxCell>
        <mxCell id="KQELojNOx8MNn1PBbwNk-13" value="1. 웹 브라우저 실행" style="text;strokeColor=#006658;fillColor=none;spacingLeft=4;spacingRight=4;overflow=hidden;rotatable=0;points=[[0,0.5],[1,0.5]];portConstraint=eastwest;fontSize=14;fontColor=#5C5C5C;" vertex="1" parent="1">
          <mxGeometry x="142" y="132" width="134" height="30" as="geometry" />
        </mxCell>
        <mxCell id="KQELojNOx8MNn1PBbwNk-15" value="" style="shape=flexArrow;endArrow=classic;html=1;rounded=0;fontSize=14;startArrow=none;entryX=0.1;entryY=0.343;entryDx=0;entryDy=0;entryPerimeter=0;strokeColor=#006658;fontColor=#5C5C5C;" edge="1" parent="1" source="KQELojNOx8MNn1PBbwNk-17" target="KQELojNOx8MNn1PBbwNk-21">
          <mxGeometry width="50" height="50" relative="1" as="geometry">
            <mxPoint x="262" y="470" as="sourcePoint" />
            <mxPoint x="490" y="470" as="targetPoint" />
          </mxGeometry>
        </mxCell>
        <mxCell id="KQELojNOx8MNn1PBbwNk-16" value="" style="shape=flexArrow;endArrow=classic;html=1;rounded=0;fontSize=14;startArrow=none;entryX=0.874;entryY=0.703;entryDx=0;entryDy=0;entryPerimeter=0;strokeColor=#006658;fontColor=#5C5C5C;" edge="1" parent="1" source="KQELojNOx8MNn1PBbwNk-19" target="KQELojNOx8MNn1PBbwNk-23">
          <mxGeometry width="50" height="50" relative="1" as="geometry">
            <mxPoint x="529" y="510" as="sourcePoint" />
            <mxPoint x="261.9999999999999" y="490" as="targetPoint" />
          </mxGeometry>
        </mxCell>
        <mxCell id="KQELojNOx8MNn1PBbwNk-17" value="2. 서비스 요청&#xa;" style="text;strokeColor=#006658;fillColor=none;spacingLeft=4;spacingRight=4;overflow=hidden;rotatable=0;points=[[0,0.5],[1,0.5]];portConstraint=eastwest;fontSize=14;fontColor=#5C5C5C;" vertex="1" parent="1">
          <mxGeometry x="320" y="422" width="100" height="30" as="geometry" />
        </mxCell>
        <mxCell id="KQELojNOx8MNn1PBbwNk-18" value="" style="shape=flexArrow;endArrow=none;html=1;rounded=0;fontSize=14;strokeColor=#006658;fontColor=#5C5C5C;" edge="1" parent="1" source="KQELojNOx8MNn1PBbwNk-23" target="KQELojNOx8MNn1PBbwNk-17">
          <mxGeometry width="50" height="50" relative="1" as="geometry">
            <mxPoint x="262" y="470" as="sourcePoint" />
            <mxPoint x="490" y="470" as="targetPoint" />
          </mxGeometry>
        </mxCell>
        <mxCell id="KQELojNOx8MNn1PBbwNk-19" value="3. 서비스 응답&#xa;" style="text;strokeColor=#006658;fillColor=none;spacingLeft=4;spacingRight=4;overflow=hidden;rotatable=0;points=[[0,0.5],[1,0.5]];portConstraint=eastwest;fontSize=14;fontColor=#5C5C5C;" vertex="1" parent="1">
          <mxGeometry x="320" y="477" width="100" height="30" as="geometry" />
        </mxCell>
        <mxCell id="KQELojNOx8MNn1PBbwNk-20" value="" style="shape=flexArrow;endArrow=none;html=1;rounded=0;fontSize=14;exitX=0;exitY=0.5;exitDx=0;exitDy=0;strokeColor=#006658;fontColor=#5C5C5C;" edge="1" parent="1" source="KQELojNOx8MNn1PBbwNk-21" target="KQELojNOx8MNn1PBbwNk-19">
          <mxGeometry width="50" height="50" relative="1" as="geometry">
            <mxPoint x="529" y="510" as="sourcePoint" />
            <mxPoint x="297" y="510" as="targetPoint" />
          </mxGeometry>
        </mxCell>
        <mxCell id="KQELojNOx8MNn1PBbwNk-21" value="" style="image;html=1;image=img/lib/clip_art/computers/Server_128x128.png;fontSize=14;strokeColor=#006658;imageBorder=default;fillColor=#21C0A5;fontColor=#5C5C5C;" vertex="1" parent="1">
          <mxGeometry x="500" y="422" width="100" height="98" as="geometry" />
        </mxCell>
        <mxCell id="KQELojNOx8MNn1PBbwNk-22" value="&lt;b&gt;서버&lt;br&gt;S/W&lt;/b&gt;" style="rounded=1;whiteSpace=wrap;html=1;fontSize=14;strokeColor=#006658;fillColor=#21C0A5;fontColor=#5C5C5C;" vertex="1" parent="1">
          <mxGeometry x="560" y="390" width="60" height="65" as="geometry" />
        </mxCell>
        <mxCell id="KQELojNOx8MNn1PBbwNk-23" value="" style="dashed=0;outlineConnect=0;html=1;align=center;labelPosition=center;verticalLabelPosition=bottom;verticalAlign=top;shape=mxgraph.weblogos.chrome;fontSize=24;strokeColor=#006658;fillColor=#21C0A5;fontColor=#5C5C5C;" vertex="1" parent="1">
          <mxGeometry x="174.6" y="427" width="74.8" height="75.4" as="geometry" />
        </mxCell>
        <mxCell id="KQELojNOx8MNn1PBbwNk-24" value="클라이언트" style="text;strokeColor=none;fillColor=none;spacingLeft=4;spacingRight=4;overflow=hidden;rotatable=0;points=[[0,0.5],[1,0.5]];portConstraint=eastwest;fontSize=14;fontColor=#5C5C5C;" vertex="1" parent="1">
          <mxGeometry x="170" y="500" width="90" height="30" as="geometry" />
        </mxCell>
        <mxCell id="KQELojNOx8MNn1PBbwNk-25" value="1. 웹 브라우저 실행" style="text;strokeColor=#006658;fillColor=none;spacingLeft=4;spacingRight=4;overflow=hidden;rotatable=0;points=[[0,0.5],[1,0.5]];portConstraint=eastwest;fontSize=14;fontColor=#5C5C5C;" vertex="1" parent="1">
          <mxGeometry x="142" y="392" width="134" height="30" as="geometry" />
        </mxCell>
        <mxCell id="KQELojNOx8MNn1PBbwNk-26" value="" style="shape=flexArrow;endArrow=classic;html=1;rounded=0;fontSize=24;exitX=0.5;exitY=1;exitDx=0;exitDy=0;strokeColor=#006658;fontColor=#5C5C5C;" edge="1" parent="1" source="KQELojNOx8MNn1PBbwNk-3" target="KQELojNOx8MNn1PBbwNk-21">
          <mxGeometry width="50" height="50" relative="1" as="geometry">
            <mxPoint x="555" y="390" as="sourcePoint" />
            <mxPoint x="545" y="260" as="targetPoint" />
          </mxGeometry>
        </mxCell>
        <mxCell id="KQELojNOx8MNn1PBbwNk-27" value="서버" style="text;strokeColor=none;fillColor=none;spacingLeft=4;spacingRight=4;overflow=hidden;rotatable=0;points=[[0,0.5],[1,0.5]];portConstraint=eastwest;fontSize=14;fontColor=#5C5C5C;" vertex="1" parent="1">
          <mxGeometry x="532.5" y="520" width="37.5" height="30" as="geometry" />
        </mxCell>
        <mxCell id="KQELojNOx8MNn1PBbwNk-28" value="서버" style="text;strokeColor=none;fillColor=none;spacingLeft=4;spacingRight=4;overflow=hidden;rotatable=0;points=[[0,0.5],[1,0.5]];portConstraint=eastwest;fontSize=14;fontColor=#5C5C5C;" vertex="1" parent="1">
          <mxGeometry x="532.5" y="240" width="37.5" height="30" as="geometry" />
        </mxCell>
        <mxCell id="KQELojNOx8MNn1PBbwNk-29" value="클라이언트&#xa;코드 변경" style="text;strokeColor=none;fillColor=none;spacingLeft=4;spacingRight=4;overflow=hidden;rotatable=0;points=[[0,0.5],[1,0.5]];portConstraint=eastwest;fontSize=14;fontStyle=1;fontColor=#5C5C5C;" vertex="1" parent="1">
          <mxGeometry x="470" y="300" width="90" height="50" as="geometry" />
        </mxCell>
      </root>
    </mxGraphModel>
  </diagram>
</mxfile>
